# xmcd CD database file
#
# Track frame offsets:
#	225
#	18673
#	48820
#	76473
#	96827
#	116807
#	131849
#	146891
#	168682
#	186360
#	198218
#	217819
#	244034
#	258569
#	277351
#
# Disc length: 3798 seconds
#
# Revision: 0
# Processed by: cddbd v1.5.2PL0 Copyright (c) Steve Scherf et al.
# Submitted via: CDex 1.50
#
DISCID=ea0ed30f
DTITLE=Various Artist - Hobo Jungle
DYEAR=2000
DGENRE=Blues
TTITLE0=Wondering
TTITLE1=Someone to Talk Too
TTITLE2=Crawford's Grill
TTITLE3=Shaking Off The Blues
TTITLE4=Hoodoo Man
TTITLE5=I Believe I'll Give It Up
TTITLE6=Stay In Bed
TTITLE7=Drink Muddy Waters
TTITLE8=Red Light Runner
TTITLE9=Rub It Boy, Til It Shines
TTITLE10=Unfinished Business
TTITLE11=99 Pounds
TTITLE12=Yonder Came The Blues
TTITLE13=Boilerhouse Blues
TTITLE14=Next Time You See Me I'll Be Gone
EXTD=YEAR: 2000
EXTT0=
EXTT1=
EXTT2=
EXTT3=
EXTT4=
EXTT5=
EXTT6=
EXTT7=
EXTT8=
EXTT9=
EXTT10=
EXTT11=
EXTT12=
EXTT13=
EXTT14=
PLAYORDER=
